<mxfile host="app.diagrams.net" agent="Mozilla/5.0 (Macintosh; Intel Mac OS X 10_15_7) AppleWebKit/537.36 (KHTML, like Gecko) Chrome/141.0.0.0 Safari/537.36" version="28.2.8">
  <diagram id="gfCnTJdlPujqQwhyTv_k" name="Page-1">
    <mxGraphModel dx="1826" dy="2042" grid="0" gridSize="10" guides="1" tooltips="1" connect="1" arrows="1" fold="1" page="0" pageScale="1" pageWidth="850" pageHeight="1100" math="0" shadow="0">
      <root>
        <mxCell id="0" />
        <mxCell id="1" parent="0" />
        <mxCell id="H6CWbuGrce9sZLfPaLzb-2" value="VPC" style="shape=mxgraph.ibm.box;prType=vpc;fontStyle=0;verticalAlign=top;align=left;spacingLeft=32;spacingTop=4;fillColor=none;rounded=0;whiteSpace=wrap;html=1;strokeColor=#4376BB;strokeWidth=2;dashed=0;container=1;spacing=-4;collapsible=0;expand=0;recursiveResize=0;" vertex="1" parent="1">
          <mxGeometry x="-121" y="-792" width="609" height="622" as="geometry" />
        </mxCell>
        <mxCell id="H6CWbuGrce9sZLfPaLzb-3" value="" style="rounded=1;whiteSpace=wrap;html=1;" vertex="1" parent="H6CWbuGrce9sZLfPaLzb-2">
          <mxGeometry x="25" y="45" width="561" height="547" as="geometry" />
        </mxCell>
        <mxCell id="H6CWbuGrce9sZLfPaLzb-6" value="" style="rounded=1;whiteSpace=wrap;html=1;" vertex="1" parent="H6CWbuGrce9sZLfPaLzb-2">
          <mxGeometry x="56" y="171" width="243" height="338" as="geometry" />
        </mxCell>
        <mxCell id="H6CWbuGrce9sZLfPaLzb-26" style="edgeStyle=none;curved=1;rounded=0;orthogonalLoop=1;jettySize=auto;html=1;fontSize=12;startSize=8;endSize=8;" edge="1" parent="H6CWbuGrce9sZLfPaLzb-2" source="H6CWbuGrce9sZLfPaLzb-21" target="H6CWbuGrce9sZLfPaLzb-13">
          <mxGeometry relative="1" as="geometry" />
        </mxCell>
        <mxCell id="H6CWbuGrce9sZLfPaLzb-7" value="" style="rounded=1;whiteSpace=wrap;html=1;" vertex="1" parent="H6CWbuGrce9sZLfPaLzb-2">
          <mxGeometry x="319" y="171" width="243" height="338" as="geometry" />
        </mxCell>
        <mxCell id="H6CWbuGrce9sZLfPaLzb-8" value="Public subnet" style="points=[[0,0],[0.25,0],[0.5,0],[0.75,0],[1,0],[1,0.25],[1,0.5],[1,0.75],[1,1],[0.75,1],[0.5,1],[0.25,1],[0,1],[0,0.75],[0,0.5],[0,0.25]];outlineConnect=0;gradientColor=none;html=1;whiteSpace=wrap;fontSize=12;fontStyle=0;container=1;pointerEvents=0;collapsible=0;recursiveResize=0;shape=mxgraph.aws4.group;grIcon=mxgraph.aws4.group_security_group;grStroke=0;strokeColor=#7AA116;fillColor=#F2F6E8;verticalAlign=top;align=left;spacingLeft=30;fontColor=#248814;dashed=0;" vertex="1" parent="H6CWbuGrce9sZLfPaLzb-2">
          <mxGeometry x="63" y="106" width="210" height="48" as="geometry" />
        </mxCell>
        <mxCell id="H6CWbuGrce9sZLfPaLzb-9" value="Private subnet" style="points=[[0,0],[0.25,0],[0.5,0],[0.75,0],[1,0],[1,0.25],[1,0.5],[1,0.75],[1,1],[0.75,1],[0.5,1],[0.25,1],[0,1],[0,0.75],[0,0.5],[0,0.25]];outlineConnect=0;gradientColor=none;html=1;whiteSpace=wrap;fontSize=12;fontStyle=0;container=1;pointerEvents=0;collapsible=0;recursiveResize=0;shape=mxgraph.aws4.group;grIcon=mxgraph.aws4.group_security_group;grStroke=0;strokeColor=#00A4A6;fillColor=#E6F6F7;verticalAlign=top;align=left;spacingLeft=30;fontColor=#147EBA;dashed=0;" vertex="1" parent="H6CWbuGrce9sZLfPaLzb-2">
          <mxGeometry x="348" y="417" width="200" height="51" as="geometry" />
        </mxCell>
        <mxCell id="H6CWbuGrce9sZLfPaLzb-11" value="" style="points=[];aspect=fixed;html=1;align=center;shadow=0;dashed=0;fillColor=#FF6A00;strokeColor=none;shape=mxgraph.alibaba_cloud.alb_application_load_balancer_02;" vertex="1" parent="H6CWbuGrce9sZLfPaLzb-2">
          <mxGeometry x="144" y="206" width="60" height="60" as="geometry" />
        </mxCell>
        <mxCell id="H6CWbuGrce9sZLfPaLzb-13" value="NAT gateway" style="sketch=0;outlineConnect=0;fontColor=#232F3E;gradientColor=none;strokeColor=#232F3E;fillColor=#ffffff;dashed=0;verticalLabelPosition=bottom;verticalAlign=top;align=center;html=1;fontSize=12;fontStyle=0;aspect=fixed;shape=mxgraph.aws4.resourceIcon;resIcon=mxgraph.aws4.nat_gateway;" vertex="1" parent="H6CWbuGrce9sZLfPaLzb-2">
          <mxGeometry x="132.5" y="366" width="90" height="90" as="geometry" />
        </mxCell>
        <mxCell id="H6CWbuGrce9sZLfPaLzb-15" value="AZ1" style="text;strokeColor=none;fillColor=none;html=1;align=center;verticalAlign=middle;whiteSpace=wrap;rounded=0;fontSize=16;" vertex="1" parent="H6CWbuGrce9sZLfPaLzb-2">
          <mxGeometry x="147.5" y="527" width="60" height="30" as="geometry" />
        </mxCell>
        <mxCell id="H6CWbuGrce9sZLfPaLzb-16" value="AZ2" style="text;strokeColor=none;fillColor=none;html=1;align=center;verticalAlign=middle;whiteSpace=wrap;rounded=0;fontSize=16;" vertex="1" parent="H6CWbuGrce9sZLfPaLzb-2">
          <mxGeometry x="403" y="523" width="60" height="30" as="geometry" />
        </mxCell>
        <mxCell id="H6CWbuGrce9sZLfPaLzb-17" value="" style="sketch=0;points=[[0,0,0],[0.25,0,0],[0.5,0,0],[0.75,0,0],[1,0,0],[0,1,0],[0.25,1,0],[0.5,1,0],[0.75,1,0],[1,1,0],[0,0.25,0],[0,0.5,0],[0,0.75,0],[1,0.25,0],[1,0.5,0],[1,0.75,0]];outlineConnect=0;fontColor=#232F3E;fillColor=#ED7100;strokeColor=#ffffff;dashed=0;verticalLabelPosition=bottom;verticalAlign=top;align=center;html=1;fontSize=12;fontStyle=0;aspect=fixed;shape=mxgraph.aws4.resourceIcon;resIcon=mxgraph.aws4.ec2;" vertex="1" parent="H6CWbuGrce9sZLfPaLzb-2">
          <mxGeometry x="369" y="206" width="63" height="63" as="geometry" />
        </mxCell>
        <mxCell id="H6CWbuGrce9sZLfPaLzb-18" value="EC2/ECS" style="text;strokeColor=none;fillColor=none;html=1;align=center;verticalAlign=middle;whiteSpace=wrap;rounded=0;fontSize=16;" vertex="1" parent="H6CWbuGrce9sZLfPaLzb-2">
          <mxGeometry x="465" y="225" width="60" height="30" as="geometry" />
        </mxCell>
        <mxCell id="H6CWbuGrce9sZLfPaLzb-19" value="Public subnet" style="points=[[0,0],[0.25,0],[0.5,0],[0.75,0],[1,0],[1,0.25],[1,0.5],[1,0.75],[1,1],[0.75,1],[0.5,1],[0.25,1],[0,1],[0,0.75],[0,0.5],[0,0.25]];outlineConnect=0;gradientColor=none;html=1;whiteSpace=wrap;fontSize=12;fontStyle=0;container=1;pointerEvents=0;collapsible=0;recursiveResize=0;shape=mxgraph.aws4.group;grIcon=mxgraph.aws4.group_security_group;grStroke=0;strokeColor=#7AA116;fillColor=#F2F6E8;verticalAlign=top;align=left;spacingLeft=30;fontColor=#248814;dashed=0;" vertex="1" parent="H6CWbuGrce9sZLfPaLzb-2">
          <mxGeometry x="333" y="106" width="200" height="50" as="geometry" />
        </mxCell>
        <mxCell id="H6CWbuGrce9sZLfPaLzb-20" value="" style="sketch=0;points=[[0,0,0],[0.25,0,0],[0.5,0,0],[0.75,0,0],[1,0,0],[0,1,0],[0.25,1,0],[0.5,1,0],[0.75,1,0],[1,1,0],[0,0.25,0],[0,0.5,0],[0,0.75,0],[1,0.25,0],[1,0.5,0],[1,0.75,0]];outlineConnect=0;fontColor=#232F3E;fillColor=#C925D1;strokeColor=#ffffff;dashed=0;verticalLabelPosition=bottom;verticalAlign=top;align=center;html=1;fontSize=12;fontStyle=0;aspect=fixed;shape=mxgraph.aws4.resourceIcon;resIcon=mxgraph.aws4.rds;" vertex="1" parent="H6CWbuGrce9sZLfPaLzb-2">
          <mxGeometry x="371" y="312" width="61" height="61" as="geometry" />
        </mxCell>
        <mxCell id="H6CWbuGrce9sZLfPaLzb-21" value="ALB" style="text;strokeColor=none;fillColor=none;html=1;align=center;verticalAlign=middle;whiteSpace=wrap;rounded=0;fontSize=16;" vertex="1" parent="H6CWbuGrce9sZLfPaLzb-2">
          <mxGeometry x="147.5" y="269" width="60" height="30" as="geometry" />
        </mxCell>
        <mxCell id="H6CWbuGrce9sZLfPaLzb-22" value="" style="endArrow=classic;html=1;rounded=0;fontSize=12;startSize=8;endSize=8;curved=1;exitX=0.86;exitY=0.393;exitDx=0;exitDy=0;exitPerimeter=0;" edge="1" parent="H6CWbuGrce9sZLfPaLzb-2">
          <mxGeometry width="50" height="50" relative="1" as="geometry">
            <mxPoint x="204.00000000000003" y="236.9140000000001" as="sourcePoint" />
            <mxPoint x="365" y="237" as="targetPoint" />
          </mxGeometry>
        </mxCell>
        <mxCell id="H6CWbuGrce9sZLfPaLzb-27" style="edgeStyle=none;curved=1;rounded=0;orthogonalLoop=1;jettySize=auto;html=1;fontSize=12;startSize=8;endSize=8;" edge="1" parent="H6CWbuGrce9sZLfPaLzb-2">
          <mxGeometry relative="1" as="geometry">
            <mxPoint x="178" y="156" as="sourcePoint" />
            <mxPoint x="178" y="203" as="targetPoint" />
          </mxGeometry>
        </mxCell>
        <mxCell id="H6CWbuGrce9sZLfPaLzb-29" value="" style="endArrow=classic;html=1;rounded=0;fontSize=12;startSize=8;endSize=8;curved=1;exitX=0.5;exitY=1;exitDx=0;exitDy=0;exitPerimeter=0;" edge="1" parent="H6CWbuGrce9sZLfPaLzb-2">
          <mxGeometry width="50" height="50" relative="1" as="geometry">
            <mxPoint x="403" y="374" as="sourcePoint" />
            <mxPoint x="403" y="417" as="targetPoint" />
          </mxGeometry>
        </mxCell>
        <mxCell id="H6CWbuGrce9sZLfPaLzb-32" value="" style="endArrow=classic;html=1;rounded=0;fontSize=12;startSize=8;endSize=8;curved=1;exitX=0.5;exitY=1;exitDx=0;exitDy=0;exitPerimeter=0;entryX=0.5;entryY=0;entryDx=0;entryDy=0;entryPerimeter=0;" edge="1" parent="H6CWbuGrce9sZLfPaLzb-2" source="H6CWbuGrce9sZLfPaLzb-17" target="H6CWbuGrce9sZLfPaLzb-20">
          <mxGeometry width="50" height="50" relative="1" as="geometry">
            <mxPoint x="282" y="359" as="sourcePoint" />
            <mxPoint x="332" y="309" as="targetPoint" />
          </mxGeometry>
        </mxCell>
        <mxCell id="H6CWbuGrce9sZLfPaLzb-33" value="RDS&lt;br&gt;PostgreSQL" style="text;strokeColor=none;fillColor=none;html=1;align=center;verticalAlign=middle;whiteSpace=wrap;rounded=0;fontSize=16;" vertex="1" parent="H6CWbuGrce9sZLfPaLzb-2">
          <mxGeometry x="465" y="321" width="60" height="30" as="geometry" />
        </mxCell>
        <mxCell id="H6CWbuGrce9sZLfPaLzb-35" value="" style="verticalLabelPosition=bottom;aspect=fixed;html=1;shape=mxgraph.salesforce.web;fillColorStyles=fillColor2,fillColor3,fillColor4;fillColor2=#032d60;fillColor3=#0d9dda;fillColor4=#ffffff;fillColor=none;strokeColor=none;" vertex="1" parent="1">
          <mxGeometry x="561" y="-684" width="60" height="47.400000000000006" as="geometry" />
        </mxCell>
        <mxCell id="H6CWbuGrce9sZLfPaLzb-36" value="Application" style="text;strokeColor=none;fillColor=none;html=1;align=center;verticalAlign=middle;whiteSpace=wrap;rounded=0;fontSize=16;" vertex="1" parent="1">
          <mxGeometry x="561" y="-633" width="60" height="30" as="geometry" />
        </mxCell>
        <mxCell id="H6CWbuGrce9sZLfPaLzb-37" value="" style="image;aspect=fixed;html=1;points=[];align=center;fontSize=12;image=img/lib/azure2/app_services/App_Services.svg;" vertex="1" parent="1">
          <mxGeometry x="568" y="-448" width="68" height="68" as="geometry" />
        </mxCell>
        <mxCell id="H6CWbuGrce9sZLfPaLzb-38" value="Web" style="text;strokeColor=none;fillColor=none;html=1;align=center;verticalAlign=middle;whiteSpace=wrap;rounded=0;fontSize=16;" vertex="1" parent="1">
          <mxGeometry x="572" y="-369" width="60" height="30" as="geometry" />
        </mxCell>
        <mxCell id="H6CWbuGrce9sZLfPaLzb-39" value="" style="endArrow=classic;startArrow=classic;html=1;rounded=0;fontSize=12;startSize=8;endSize=8;curved=1;" edge="1" parent="1">
          <mxGeometry width="50" height="50" relative="1" as="geometry">
            <mxPoint x="488" y="-413" as="sourcePoint" />
            <mxPoint x="566" y="-415" as="targetPoint" />
          </mxGeometry>
        </mxCell>
        <mxCell id="H6CWbuGrce9sZLfPaLzb-40" value="" style="endArrow=classic;startArrow=classic;html=1;rounded=0;fontSize=12;startSize=8;endSize=8;curved=1;" edge="1" parent="1">
          <mxGeometry width="50" height="50" relative="1" as="geometry">
            <mxPoint x="497" y="-659" as="sourcePoint" />
            <mxPoint x="557" y="-659" as="targetPoint" />
          </mxGeometry>
        </mxCell>
        <mxCell id="H6CWbuGrce9sZLfPaLzb-41" value="AWS Cloud" style="text;strokeColor=none;fillColor=none;html=1;align=center;verticalAlign=middle;whiteSpace=wrap;rounded=0;fontSize=16;" vertex="1" parent="1">
          <mxGeometry x="-123" y="-826" width="95" height="30" as="geometry" />
        </mxCell>
      </root>
    </mxGraphModel>
  </diagram>
</mxfile>
